<?xml version="1.0" encoding="utf-8"?>
<!-- Generator: Adobe Illustrator 19.0.0, SVG Export Plug-In . SVG Version: 6.00 Build 0)  -->
<svg version="1.1" id="Layer_1" xmlns="http://www.w3.org/2000/svg" xmlns:xlink="http://www.w3.org/1999/xlink" x="0px" y="0px"
	 viewBox="0 0 283 308" style="enable-background:new 0 0 283 308;" xml:space="preserve">
<style type="text/css">
	.robo2_st0{fill:#6DBEF3;stroke:#12679F;stroke-linejoin:round;stroke-miterlimit:10;}
	.robo2_st1{fill:#C2D6F1;stroke:#12679F;stroke-linejoin:round;stroke-miterlimit:10;}
	.robo2_st2{fill:none;stroke:#12679F;stroke-linejoin:round;stroke-miterlimit:10;}
	.robo2_st3{fill:#6DBEF3;}
	.robo2_st4{fill:#F6BB28;stroke:#12679F;stroke-linejoin:round;stroke-miterlimit:10;}
	.robo2_st5{fill:#F6BB28;stroke:#12679F;stroke-width:1.163;stroke-linejoin:round;stroke-miterlimit:10;}
	.robo2_st6{fill:#215775;}
</style>
<g id="XMLID_1_">
	<g id="XMLID_100_">
		<path id="XMLID_105_" class="robo2_st0" d="M91.5,105.3l31.6,7.5l-6.3,15.1L79,119.4l11.4-9.9C90.4,109.5,90.4,107.6,91.5,105.3z"/>
		<polygon id="XMLID_104_" class="robo2_st0" points="139.5,123.2 123.4,128.3 116.5,115.1 141.4,108 		"/>
		<path id="XMLID_103_" class="robo2_st0" d="M146.5,100.6c0,0-9.2,3.3-9.1,10.2v16.4c0,0,0.2,2.6,1.4,4l4.3-1l-0.2-6c0,0,2.2-3.3,3.7-3.5
			L146.5,100.6z"/>
		<circle id="XMLID_102_" class="robo2_st0" cx="79.6" cy="112" r="13.7"/>
		<path id="XMLID_101_" class="robo2_st0" d="M109.4,130c0,0,14.6,4.3,16.8-2.2c0,0,3.5-7.9-4.1-11.2c0,0-2.9-1-4.4-1.3l10.5-3.5
			c0,0-3.1-2-11.4-3.5c0,0-5.5-1.7-8.6,5.9c0,0-3.6,10.2-1.4,14.3C106.7,128.4,107.2,129.4,109.4,130z"/>
	</g>
	<g id="XMLID_67_">
		<g id="XMLID_69_">
			<g id="XMLID_76_">
				<path id="XMLID_99_" class="robo2_st1" d="M73.1,112.2c0,0,7,6.4-0.7,16.3"/>
				<path id="XMLID_98_" class="robo2_st0" d="M57.1,247.8l14.6-8.3c0,0,5.2-5,3.6-12.8l-22.9-1L57.1,247.8z"/>
				<path id="XMLID_97_" class="robo2_st0" d="M47.4,164.8l2-1.2c0,0,1.2-1.3,3,0l17,9.7c0,0,1.4,0.6,1.2,3l-4,29.6l-1.6,9.7
					c0,0,0,2.2-2.3,2.9l-3.1,1.2l-9.4-47.6L47.4,164.8z"/>
				<path id="XMLID_96_" class="robo2_st0" d="M63.3,207.4l3.8-28.4c0,0,0.8-3.4-3.8-5.5l-14-8.2c0,0-3-2.6-2.3,3.5l4.8,41
					c0,0,1,7.1,4.9,9.4c0,0,4.7,2.3,5.4-3L63.3,207.4z"/>
				<path id="XMLID_95_" class="robo2_st0" d="M60.7,229.7c0,0,1.9,8.4-1.4,15.3c0,0-5.8,9.1-18.2,3.2c0,0-23-11.6-20.3-41.5
					c2.6-27.6,25.1,4.1,25.1,4.1L60.7,229.7z"/>
				<path id="XMLID_94_" class="robo2_st0" d="M64,232.1c0,0,13.8,0.5,17.5-10.2c0,0-0.1-22.9-17.9-37.2c0,0-5-5.4-14.9-7.9
					c0,0-17.7-3.7-29.5,13.2L64,232.1z"/>
				<path id="XMLID_93_" class="robo2_st0" d="M64,232.1c0,0-0.8-20.3-13.4-32.9c0,0-10.6-15-26.6-12c0,0-9.8,1.8-8.8,17l10.9,6.2l0,0
					c0,0,1.4,0.7,6.1,15.2l4.6,6c0,0,6.7,6.7,9.8,0.1c0,0,1.8-5.9,4.1-6c0,0,1.4-0.2,3,0.4L64,232.1z"/>
				<path id="XMLID_92_" class="robo2_st0" d="M26.6,177.1l2-1.2c0,0,1.2-1.3,3,0l17,9.7c0,0,1.4,0.6,1.2,3l-4,29.6l-1.6,9.7
					c0,0,0,2.2-2.3,2.9L39,232l-9.4-47.6L26.6,177.1z"/>
				<path id="XMLID_91_" class="robo2_st0" d="M42.6,219.6l3.8-28.4c0,0,0.8-3.4-3.8-5.5l-14-8.2c0,0-3-2.6-2.3,3.5l4.8,41
					c0,0,1,7.1,4.9,9.4c0,0,4.7,2.3,5.4-3L42.6,219.6z"/>
				<path id="XMLID_90_" class="robo2_st0" d="M11.7,133.3L11.7,133.3c0,0-0.5,35.7,13.7,45.9c0,0,19.9,17.4,44.8-3c0,0,11.8-10,12.1-33.6
					c0,0,1.6-21.7-0.5-36.8c0,0-2.6-13.1-25.8-15.3c0,0-28.8-2.9-41.7,17.3C14.3,107.9,10.9,111.6,11.7,133.3z"/>
				<path id="XMLID_89_" class="robo2_st0" d="M82.1,126.9l-4.2-2.2c0,0-6.6,6-17.3,10.1c0,0-5.5,2.4-5.6,7.2c0,0,0.2,14,0.2,15.1
					c0,1.3,0.5,3.1,1.9,4l4.7,2.6L82.1,126.9z"/>
				<path id="XMLID_88_" class="robo2_st0" d="M80,128.5l-15.5,8.8c0,0-3.8,1.9-3.8,5.4l-0.1,18.7c0,0,0.1,4.7,4.8,2l15.1-8.8
					c0,0,4.4-2.2,4.4-7c0-4.1,0.1-16.8,0.1-16.8S85.2,125.4,80,128.5z"/>
				<path id="XMLID_87_" class="robo2_st0" d="M78.3,132.6l-11.6,6.6c0,0-4,2.4-3.6,6.8v12.3c0,0,0.2,3.6,5.3,0l10.9-6.1
					c0,0,3.1-1.4,3.5-5.6l0.1-13.4C82.7,133.2,82.6,129.6,78.3,132.6z"/>
				<path id="XMLID_86_" class="robo2_st1" d="M14.3,141.9c0,0,9.8,2.3,9.5,12.7"/>
				<path id="XMLID_85_" class="robo2_st0" d="M57.4,94.1c2.5-2.4,2.5-5.5-0.1-7.9c3.1-3,2.5-6.8-1.9-9.5c-5.2-3-13.5-3-18.7,0
					c-4.4,2.5-5,6.5-1.8,9.4c-2.6,2.5-2.6,5.6,0,8c-2.5,2.4-2.5,5.5,0.1,7.9c-3.1,3-2.5,6.8,1.9,9.5c5.2,3,13.5,2.9,18.7,0
					c4.3-2.5,4.9-6.5,1.8-9.4C60.1,99.7,60.1,96.6,57.4,94.1z"/>
				<path id="XMLID_84_" class="robo2_st0" d="M35,102.2c0,0,11.4,7.1,22.4,0"/>
				<path id="XMLID_83_" class="robo2_st2" d="M12,115.7c0,0,20,15.6,35.1,12.3c0,0,27.2-7,34.1-23.5"/>
				<path id="XMLID_82_" class="robo2_st0" d="M60.5,30.5l4.3-2.6c0,0,8-3.5,14.3,3.5c0,0,11,8.9,4.3,21.7c0,0-5.4,6.7-6.5,6.7
					c-1.1,0-22.5-19.5-22.5-19.5L60.5,30.5z"/>
				<path id="XMLID_81_" class="robo2_st0" d="M55.1,29.5c0,0-25.8-5.2-41.8,23.9c0,0-16.3,36.8,1.3,48.6c0,0,13.2,11,43.2-3.5
					c0,0,16.7-8.9,23.4-18.8c0,0,3.7-4.6,2.2-18.8C83.3,60.8,82.2,33.7,55.1,29.5z"/>
				<path id="XMLID_80_" class="robo2_st0" d="M16.5,93.5c0,0,10.2,1.1,11.5-20.4c0,0,1.1-21.7-10-16.9c0,0-16.1,5.6-14.3,21.5
					C3.8,77.7,3.8,92.8,16.5,93.5z"/>
				<path id="XMLID_79_" class="robo2_st0" d="M35.8,156.1c0,0,2.8-4.2-0.1-12.5c0,0-1.9-5.5-5.5-9.1c0,0-2.6-3.4-7.1-4.9
					c0,0-3-1.1-5.2-0.1c0,0-2,0.8-3.6,3.2l-1.9,2.5c0,0-1.9,2.6-1.8,6.1c0,0,1.8-4.7,9.1-0.4c0,0,4.8,1.4,6.4,7.2
					c0,0,0.5,5.2-2.6,8.8c0,0-0.2,2.3-2.5,1.7c0,0,2.8,1.7,6.4,1.2c0,0,4-0.4,5.9-1.2C33.1,158.7,34.5,158.2,35.8,156.1z"/>
				<path id="XMLID_78_" class="robo2_st1" d="M15.8,137.5c0,0,7.1,1.1,10.7,11.6c0,0,1.9,5.9-1.7,9c0,0-2.4,1.8-5.8-0.1
					c0,0-2.2-1-3.5-2.6c0,0-3.2-3.4-4.7-8c0,0-1.9-7.3,1.8-9.2C12.8,138,14,137.1,15.8,137.5z"/>
				<path id="XMLID_77_" class="robo2_st1" d="M73.8,187"/>
			</g>
			<path id="XMLID_75_" class="robo2_st0" d="M45.8,84.3c0,0,5.9-1.7,10.3-4.9c0,0,4.2-2.4,1.9-9.6c0,0-1.3-6-6.5-7.8
				c0,0-7.3-1.9-10.8,6.2c0,0-1.8,4.8-1.4,9.2C39.3,77.3,39.1,86.8,45.8,84.3z"/>
			<path id="XMLID_74_" class="robo2_st0" d="M69.2,71.7c0,0,4.1-1.9,6.7-6c0,0,2-2.3,1.3-7.8c0,0,0-8.8-5.4-9.5c0,0-4.4-1.3-6.5,6.7
				c0,0-1.8,5.9,0.2,13.9C65.5,69,66.3,73.3,69.2,71.7z"/>
			<path id="XMLID_73_" class="robo2_st0" d="M48.3,65.4c0,0,4.2-1.1,5.6,3c0,0,1.2,4.1-2,7.3c0,0-3.5,4.1-7.7,1c0,0-3-3-0.2-8
				C44,68.7,45.1,66.3,48.3,65.4z"/>
			<path id="XMLID_72_" class="robo2_st0" d="M65.7,54.4c0,0,2.6-1.2,4.4,1c0,0,2.9,3.7,0.2,8.5c0,0-1.4,3.1-5.4,3
				C65,66.8,63.4,60.3,65.7,54.4z"/>
			<g id="XMLID_70_">
				<path id="XMLID_71_" class="robo2_st0" d="M30.8,147.9L30.8,147.9c0,0-1.4-7.9-8.4-10.6c0,0-8.4-4.2-16.1,2.3c0,0-7.9,5.9-4.1,17.1
					c0,0,2.6,7.3,9.6,8.6c0,0,6.6,1.9,12.6-1.4C24.4,164.1,32.8,157.6,30.8,147.9z"/>
			</g>
		</g>
		<path id="XMLID_68_" class="robo2_st0" d="M57.8,91l10.7-6c0,0,0.1-3.6-2.5-3.8c0,0-3.2-0.7-6.6,4.6C59.3,85.8,58.1,87.8,57.8,91z"/>
	</g>
	<polygon id="XMLID_66_" class="robo2_st0" points="262.4,200.8 255.8,207.8 260.9,228.8 183.9,184 176.5,156 167.7,157.5 169.6,164.8 
		185.1,222.1 194.8,224.8 186.6,194.5 264.1,239.1 272.1,269.8 277.7,280.6 282.8,276.4 	"/>
	<polygon id="XMLID_65_" class="robo2_st0" points="186.6,217.2 181.6,198.7 259,243.3 267,274 277.7,280.6 257.3,205 250.8,212 
		255.8,233 178.8,188.2 171.5,160.2 162.6,161.7 164.5,169 176.9,214.5 	"/>
	<polygon id="XMLID_64_" class="robo2_st0" points="229.5,307.5 234.8,305 255.2,203.8 245.7,203.3 	"/>
	<polygon id="XMLID_63_" class="robo2_st0" points="156.3,199.3 234.2,243.9 232.3,253.8 148.1,205.9 148.7,198.1 	"/>
	<polygon id="XMLID_62_" class="robo2_st0" points="141.5,256.6 147.1,254.3 166.6,158.2 157.3,158.7 	"/>
	<polygon id="XMLID_61_" class="robo2_st0" points="151.1,154.5 131.4,250.6 141.5,256.6 150.2,214.7 227,259.1 218.6,300.6 229.5,307.5 
		249.7,207.1 238.4,205.2 230,246.1 152.9,201.4 162.2,156.6 	"/>
	<polygon id="XMLID_60_" class="robo2_st0" points="254,214.1 268.3,206.1 268.3,144.8 254,152.8 	"/>
	<line id="XMLID_59_" class="robo2_st0" x1="178.8" y1="188.2" x2="183.9" y2="184"/>
	<line id="XMLID_58_" class="robo2_st0" x1="152.9" y1="201.4" x2="158.2" y2="200.5"/>
	<polygon id="XMLID_57_" class="robo2_st3" points="157.5,200.9 158.3,200.8 158.8,201.7 157.7,203.8 156.8,203.3 	"/>
	<path id="XMLID_56_" class="robo2_st0" d="M144.3,151.1L254,214.1v-61.2L144.5,89.7C144.5,89.7,144.7,150.7,144.3,151.1z"/>
	<polygon id="XMLID_55_" class="robo2_st0" points="254,152.8 144.5,89.7 158.8,81.7 268.3,144.8 	"/>
	<g id="XMLID_46_">
		<path id="XMLID_54_" class="robo2_st0" d="M87.1,177.1c-0.2-2.1-0.6-2.7-1-2.7l0,0l-5,0.4l-0.6,5.5l0.4,1.2c-1.2,1.2-1.9,0.2-1.9,0.2
			l-1.8-1.8c-3.1-2.8-1.1-5.1-1.1-5.1l3.1-5.1c2.8-3.5,0.1-4.1,0.1-4.1c-1.2-0.3-2.1-0.3-2.9-0.3l0,0l-5.6,0.4l0.4,1.9
			c-5.8,5.2-3.1,16.2-3.1,16.2l-21.7,33.2c-0.4,0.5-0.8,1-1.1,1.5l-0.3-0.1l-0.1,0.9c-1,2.2-0.8,4.2-0.4,5.8l-0.2,5.3l5.2-0.4l0,0
			c1.8-0.1,3-1.9,3-1.9l22.4-34.9c1.4,0.6,5.2,0,5.2,0C89.8,190.2,87.1,177.1,87.1,177.1z"/>
		<path id="XMLID_53_" class="robo2_st0" d="M41.5,217.5l21.7-33.2c0,0-3.6-14.7,6.4-18.2c0,0,1.7-0.7,4.7,0c0,0,2.7,0.6-0.1,4.1l-3.1,5.1
			c0,0-2,2.3,1.1,5.1l1.8,1.8c0,0,1.1,1.6,3-1.7l3.1-4.7c0,0,1.7-2.9,2,1.8c0,0,2.7,13-6.7,16.3c0,0-3.7,0.6-5.2,0l-22.4,34.9
			c0,0-3,4.3-6.7-0.1C41,228.6,36.9,222.9,41.5,217.5z"/>
		<line id="XMLID_52_" class="robo2_st0" x1="75.2" y1="167.2" x2="80.3" y2="166.8"/>
		<path id="XMLID_51_" class="robo2_st0" d="M49.6,191.3l-12.1,16.8c0,0-2.2,7.9,3.7,13.3c0,0,6.5,7.4,12.8,10.4L65,215.4l0.1-2.9
			c0,0-10-2.4-12.8-14.1c0,0-0.3-2.3,1-4.4L49.6,191.3z"/>
		<circle id="XMLID_50_" class="robo2_st0" cx="16.4" cy="151" r="15.1"/>
		<path id="XMLID_49_" class="robo2_st0" d="M28.4,162.5l9.1,28.7l-17.4,3.9l-9.8-30.5c0,0-1.7-2.6,7.8-4c0,0,8.9-2,10,1.1L28.4,162.5z"/>
		<path id="XMLID_48_" class="robo2_st0" d="M34.3,209.4L17,192.8l3.7-10.1l10.9-0.7l-3,0.2l14.9,14.9c0,0,5.3,5.7,2.9,14.6
			c0,0-2.1,6.7-7.5,2.2L34.3,209.4z"/>
		<path id="XMLID_47_" class="robo2_st0" d="M16.2,183.1c0,0,14.5-4.6,17.8-5.5c0,0,3.9-1.8,5.3,3c0,0,5,12.6,3.9,16.3l-10-9.8
			c0,0-3.5-3.6-8.2-0.8c0,0-2.7,1.1-2.3,7.6c0,0,2.1,8.8,0.6,11.4c0,0-2.6,2.8-4.6-2.3c0,0-3.1-7-5.8-15.6
			C12.9,187.3,11.7,184.6,16.2,183.1z"/>
	</g>
	<path id="XMLID_45_" class="robo2_st0" d="M15.2,56.9c0,0,17.7,4.7,24.3,5.1c0,0,12.3,2.1,24.4-3.6c0,0,14.3-6.1,18.9-10.5
		c0,0,5.5-4,5.4-7.4c0,0,0.5-4-6.3-6.6c0,0-8-3.8-19.9-7.2L9.4,40.4c0,0-5.3,6.3-0.6,12.2C8.8,52.6,10.3,55.1,15.2,56.9z"/>
	<path id="XMLID_44_" class="robo2_st0" d="M13.6,48.2c0,0,14.4,7.9,39.6,0.6c0,0,19.6-6.9,20.1-15.7c0,0,0-2.3-3.4-4
		c0,0-4.7-18.2-23.6-22.6c0,0-24.4-10.8-30.9,4c0,0-2,4.5-2.1,9.9c0,0-5.2,5.8-4.2,23.5C9.1,43.9,9.4,46,13.6,48.2z"/>
	<path id="XMLID_43_" class="robo2_st0" d="M26.1,4.6c0,0,17.7,2.2,25.3,20.8c0,0,3.9,9.5,5.4,14.4l7.9-4.6c0,0-1.2-6.2-6.8-15.9
		c0,0-8.8-14.9-22.7-18.4c0,0-13.4-3.5-19.9,9.7C15.4,10.6,18,4,26.1,4.6z"/>
	<path id="XMLID_42_" class="robo2_st0" d="M16.2,32.2l3.3-1.6c0,0,4.6,3.6,14.5,6.2L32.4,45l-2.4,1.4L16.2,32.2z"/>
	<polygon id="XMLID_41_" class="robo2_st0" points="16.2,32.2 14.8,40.6 29.9,46.3 31.5,38 	"/>
	<line id="XMLID_40_" class="robo2_st0" x1="31.5" y1="38" x2="34" y2="36.8"/>
	<path id="XMLID_39_" class="robo2_st4" d="M144.6,102.3l24.6-14.7l14,7.9l-38.5,22.3C144.7,117.8,144.6,102.8,144.6,102.3z"/>
	<path id="XMLID_38_" class="robo2_st4" d="M144.7,134.4l52.9-30.1l13.6,7.6l-66.6,37.9C144.6,149.7,144.4,134.4,144.7,134.4z"/>
	<polygon id="XMLID_37_" class="robo2_st4" points="158.1,158.9 226.2,120.8 239.9,128.4 172.2,167.1 	"/>
	<polygon id="XMLID_36_" class="robo2_st4" points="187.2,175.7 254.9,137.4 268.2,144.9 200.9,183.6 	"/>
	<polygon id="XMLID_35_" class="robo2_st4" points="215.5,191.9 268.2,162.2 268.2,178.3 229.5,200 	"/>
	<polygon id="XMLID_34_" class="robo2_st4" points="244,208.1 268.2,194.7 268.2,206.1 254,214.1 	"/>
	<polygon id="XMLID_33_" class="robo2_st0" points="152.6,104.7 152.6,148.3 244,200.8 244,157.1 	"/>
	<polygon id="XMLID_32_" class="robo2_st5" points="183.4,130.5 183.4,148 185.9,149.4 185.9,154.6 183.4,153.2 183.4,159.2 177.5,156 
		177.5,149.8 167.5,144.1 167.5,140 177.6,127.2 	"/>
	<polygon id="XMLID_31_" class="robo2_st0" points="177.6,135.8 177.6,144.6 173.1,142 	"/>
	<path id="XMLID_30_" class="robo2_st5" d="M203.1,144.1c0,0-4.2-7.3-10.2-7.5c0,0-3.3-0.2-4.3,4.9c0,0-0.9,8.5,0,13.4c0,0,0.9,6.4,6,11
		c0,0,3.4,2.7,5,2.9c0,0,5.3,2,6-6.1C205.7,162.6,207.2,150.7,203.1,144.1z"/>
	<path id="XMLID_29_" class="robo2_st0" d="M198.9,145c0,0-1.1-2.1-3-2.3c0,0-1.5-0.2-1.7,3.6c0,0-0.5,11.2,0.7,13.5c0,0,0.5,1.7,2.4,2.6
		c0,0,2.3,1.5,2.6-2.8c0,0,0.5-7.9-0.3-12.8C199.6,146.8,199.2,145.5,198.9,145z"/>
	<polygon id="XMLID_28_" class="robo2_st5" points="224,153.9 224,171.4 226.6,172.8 226.6,178 224,176.6 224,182.6 218.2,179.4 
		218.2,173.3 208.2,167.5 208.2,163.4 218.2,150.6 	"/>
	<polygon id="XMLID_27_" class="robo2_st0" points="218.2,159.2 218.2,168 213.7,165.5 	"/>
	<g id="XMLID_15_">
		<polygon id="XMLID_26_" class="robo2_st6" points="160.9,75.6 160.9,86.7 177.2,96.3 177.2,84.8 172.3,79.9 165.5,76 		"/>
		<polygon id="XMLID_25_" class="robo2_st0" points="153.4,80 153.4,91.1 169.7,100.7 169.7,89.2 164.8,84.3 158.1,80.4 		"/>
		<polygon id="XMLID_24_" class="robo2_st0" points="169.7,89.2 177.2,84.8 177.2,96.3 169.7,100.7 		"/>
		<polygon id="XMLID_23_" class="robo2_st0" points="172.3,79.9 164.8,84.3 169.7,89.2 177.2,84.8 		"/>
		<polygon id="XMLID_22_" class="robo2_st0" points="164.8,84.3 158.1,80.4 165.5,76 172.3,79.9 		"/>
		<polygon id="XMLID_21_" class="robo2_st0" points="160.9,75.6 153.4,80 158.1,80.4 165.5,76 		"/>
		<polygon id="XMLID_20_" class="robo2_st0" points="161.8,74 160.1,79 166.8,82.9 166.4,75.3 		"/>
		<polygon id="XMLID_19_" class="robo2_st0" points="166.8,83 169.7,81.3 168.9,74.5 166,75.3 		"/>
      
    <g style="stroke:#12679F;stroke-linejoin:round;stroke-miterlimit:10;">  
      
		<path id="XMLID_18_" d="M176.4,63c0,0-1.5-6.6-8.4-11.5c0,0-5.5-3.5-9.2-1.2l-2.9,1.7l-0.3,5l0.4,0
			c-0.1,2.7,0.4,6.2,2.8,10.2c0,0,3,5,5.8,6.9c0,0,3.5,3.1,7.2,2.9l-0.2,0.9l2.4-1.4c0.6-0.3,1.1-0.7,1.7-1.2
			C175.7,75.3,179.4,72.2,176.4,63z"/>
		<path id="XMLID_17_" d="M165.2,53.1c0,0-7.6-4.9-10.9,0.7c0,0-3.2,6.6,1.7,15c0,0,3,5,5.8,6.9c0,0,6.4,5.7,11.1,1.2
			c0,0,3.6-3.1,0.7-12.2C173.6,64.6,172.1,58,165.2,53.1z"/>
		<path id="XMLID_16_" d="M171.3,67.6c0,0-0.7-7.3-7.3-11.4c0,0-3.2-2.5-6.3,0.3c0,0-2.5,1.9-1.3,7.3
			c0,0,1.4,6.7,6.7,9.5c0,0,3.9,2.3,6.7,0.1C169.9,73.4,171.9,71.3,171.3,67.6z"/>
      
       <animate id="o1"
                attributeName="fill"
                values=" #6dbef3; #f6bb28; #6dbef3;"
                begin="0;o1.begin" dur="0.8s"
                repeatCount="indefinite" />
    </g>
    </g>
  
	<g id="XMLID_3_">
		<polygon id="XMLID_14_" class="robo2_st6" points="241.9,122.5 241.9,133.6 258.2,143.2 258.2,131.7 253.3,126.7 246.5,122.9 		"/>
		<polygon id="XMLID_13_" class="robo2_st0" points="234.4,126.9 234.4,138 250.8,147.6 250.8,136.1 245.8,131.1 239.1,127.3 		"/>
		<polygon id="XMLID_12_" class="robo2_st0" points="250.8,136.1 258.2,131.7 258.2,143.2 250.8,147.6 		"/>
		<polygon id="XMLID_11_" class="robo2_st0" points="253.3,126.7 245.8,131.1 250.8,136.1 258.2,131.7 		"/>
		<polygon id="XMLID_10_" class="robo2_st0" points="245.8,131.1 239.1,127.3 246.5,122.9 253.3,126.7 		"/>
		<polygon id="XMLID_9_" class="robo2_st0" points="241.9,122.5 234.4,126.9 239.1,127.3 246.5,122.9 		"/>
		<polygon id="XMLID_8_" class="robo2_st0" points="242.8,120.9 241.1,125.9 247.8,129.8 247.4,122.2 		"/>
		<polygon id="XMLID_7_" class="robo2_st0" points="247.8,129.9 250.7,128.2 249.9,121.3 247,122.2 		"/>
		
      <g style="stroke:#12679F;stroke-linejoin:round;stroke-miterlimit:10;">
      <path id="XMLID_6_" d="M257.4,109.9c0,0-1.5-6.6-8.4-11.5c0,0-5.5-3.5-9.2-1.2l-2.9,1.7l-0.3,5l0.4,0
			c-0.1,2.7,0.4,6.2,2.8,10.2c0,0,3,5,5.8,6.9c0,0,3.5,3.1,7.2,2.9l-0.2,0.9l2.4-1.4c0.6-0.3,1.1-0.7,1.7-1.2
			C256.7,122.2,260.4,119,257.4,109.9z"/>
		<path id="XMLID_5_" d="M246.2,100c0,0-7.6-4.9-10.9,0.7c0,0-3.2,6.6,1.7,15c0,0,3,5,5.8,6.9c0,0,6.4,5.7,11.1,1.2
			c0,0,3.6-3.1,0.7-12.2C254.6,111.5,253.1,104.9,246.2,100z"/>
		<path id="XMLID_4_" d="M252.3,114.5c0,0-0.7-7.3-7.3-11.4c0,0-3.2-2.5-6.3,0.3c0,0-2.5,1.9-1.3,7.3
			c0,0,1.4,6.7,6.7,9.5c0,0,3.9,2.3,6.7,0.1C250.9,120.3,252.9,118.2,252.3,114.5z"/>
         
        <animate id="o1"
                attributeName="fill"
                values=" #6dbef3; #f6bb28; #6dbef3;"
                begin="0;o1.begin+0.4s" dur="0.8s" 
                repeatCount="indefinite" />
        
      </g>
      
	</g>
	<polyline id="XMLID_2_" class="robo2_st2" points="144.5,89.7 254,152.8 254,214.1 	"/>
</g>
</svg>
